# xmcd
# 
# Track frame offsets:
#     150
#     27932
#     65485
#     98615
#     138267
#     171212
#     204027
#     235265
#     268917
# 
# Disc length: 4081
# 
# Revision: 1
# Processed by: cddbd v1.5.2PL0 Copyright (c) Steve Scherf et al.
# Submitted via: BonkEnc v1.0.8
# 
DISCID=740fef09
DTITLE=Dave Pietro - Wind Dance
DYEAR=1997
DGENRE=Contemporary Jazz
TTITLE0=Juba
TTITLE1=I Should Have Known
TTITLE2=This is New
TTITLE3=Ashes
TTITLE4=Fortitude
TTITLE5=Halcyon
TTITLE6=Joyance
TTITLE7=Waxing Moon
TTITLE8=Wind Dance
EXTD=YEAR: 1997
EXTT0=
EXTT1=
EXTT2=
EXTT3=
EXTT4=
EXTT5=
EXTT6=
EXTT7=
EXTT8=
PLAYORDER=
